<?xml version="1.0" encoding="UTF-8"?>
<svg xmlns="http://www.w3.org/2000/svg" width="258.775" height="68.134">
  <g data-name="Group 3540">
    <path data-name="Path 1974" d="M120.547 31.466V18.545a2.578 2.578 0 0 1 4.611-1.584l5.5 7.067a2.573 2.573 0 0 1 .544 1.584v12.921a2.577 2.577 0 0 1-4.61 1.586l-5.5-7.067a2.575 2.575 0 0 1-.544-1.583" fill="#9ab63f"></path>
    <path data-name="Path 1975" d="M148.603 40.372V27.451a2.577 2.577 0 0 1 4.611-1.583l5.5 7.067a2.573 2.573 0 0 1 .544 1.584v12.92a2.577 2.577 0 0 1-4.611 1.583l-5.5-7.067a2.58 2.58 0 0 1-.544-1.583" fill="#9ab63f"></path>
    <path data-name="Path 1976" d="m144.687 8.066-5.5-7.067a2.577 2.577 0 0 0-4.611 1.583v55.545a2.579 2.579 0 0 0 .544 1.584l5.5 7.067a2.577 2.577 0 0 0 4.611-1.583V9.649a2.577 2.577 0 0 0-.544-1.583" fill="#9ab63f"></path>
    <path data-name="Path 1977" d="M55.351 32.878a4.81 4.81 0 0 1 3.527-1.433 4.919 4.919 0 0 1 3.321 1.25l-.735.823a3.654 3.654 0 0 0-2.586-1 3.545 3.545 0 0 0-2.653 1.117 3.962 3.962 0 0 0 0 5.438 3.7 3.7 0 0 0 4.328.712 3.663 3.663 0 0 0 1.293-1.109v-1.969h-2.087v-1.018h3.233v3.424a4.662 4.662 0 0 1-1.749 1.573 5 5 0 0 1-2.366.573 4.8 4.8 0 0 1-3.535-1.433 4.923 4.923 0 0 1 .007-6.951" fill="#9ab63f"></path>
    <path data-name="Path 1978" d="M67.281 31.593h3.9a4.214 4.214 0 0 1 3.012 1.014 3.37 3.37 0 0 1 1.073 2.557 3.417 3.417 0 0 1-.573 1.925 3.277 3.277 0 0 1-1.6 1.265l2.249 2.763h-1.485l-1.931-2.426q-.367.045-1.734.045h-1.734v2.381h-1.176Zm4.012 6.1a2.733 2.733 0 0 0 1.976-.728 2.519 2.519 0 0 0 0-3.6 2.714 2.714 0 0 0-1.962-.727h-2.851v5.056Z" fill="#9ab63f"></path>
    <path data-name="Path 1979" d="M87.31 32.879a4.924 4.924 0 0 1 .007 6.952 5.078 5.078 0 0 1-7.069 0 4.924 4.924 0 0 1 .007-6.952 5.058 5.058 0 0 1 7.054 0m-.874 6.187a3.952 3.952 0 0 0 0-5.43 3.709 3.709 0 0 0-5.305 0 3.952 3.952 0 0 0 0 5.43 3.692 3.692 0 0 0 5.305 0" fill="#9ab63f"></path>
    <path data-name="Path 1980" d="M92.745 31.593h7.216v1.042h-6.04v2.881h5.643v1.029h-5.643v3.527h6.246v1.044h-7.422Z" fill="#9ab63f"></path>
    <path data-name="Path 1981" d="M104.015 31.593h3.909a4.2 4.2 0 0 1 2.984 1.014 3.55 3.55 0 0 1 0 5.114 4.224 4.224 0 0 1-3 1.015h-2.717v2.381h-1.176Zm4.012 6.1a2.733 2.733 0 0 0 1.977-.728 2.52 2.52 0 0 0 0-3.6 2.714 2.714 0 0 0-1.962-.727h-2.851v5.056Z" fill="#9ab63f"></path>
    <path data-name="Path 1982" d="M1.775 61.173a12.771 12.771 0 0 0 7.6 2.557 5.9 5.9 0 0 0 3.125-.8 2.306 2.306 0 0 0 1.314-1.971 1.893 1.893 0 0 0-1.119-1.74 12.025 12.025 0 0 0-3.144-1.03q-1.491-.356-2.575-.658a14.847 14.847 0 0 1-2.326-.888 8.2 8.2 0 0 1-2.024-1.3 5.848 5.848 0 0 1-1.314-1.812 6.035 6.035 0 0 1 1.989-7.386 10.422 10.422 0 0 1 6.073-1.741 14.885 14.885 0 0 1 8.417 2.45l-1.81 3.837a12.36 12.36 0 0 0-6.605-1.882 6.091 6.091 0 0 0-2.433.5 1.783 1.783 0 0 0-.123 3.285 12.885 12.885 0 0 0 3.232 1.012q8.771 1.953 8.772 7.351a5.984 5.984 0 0 1-2.823 5.327 11.888 11.888 0 0 1-6.659 1.847 14.13 14.13 0 0 1-9.339-3.125Z" fill="#636363"></path>
    <path data-name="Path 1983" d="M28.229 49.028h-7.813v-4.262h20.6v4.262h-7.815v18.751h-4.972Z" fill="#636363"></path>
    <path data-name="Rectangle 1568" fill="#636363" d="M44.205 44.766h4.972v23.013h-4.972z"></path>
    <path data-name="Path 1984" d="M54.148 44.766h4.3l3.516 4.866 4.262 6.143 4.226-6.108 3.517-4.9h4.3V67.78h-4.983V53.289a34.135 34.135 0 0 1-2.2 3.517l-4.866 7.138-4.936-7.21-2.166-3.409v14.454h-4.972Z" fill="#636363"></path>
    <path data-name="Path 1985" d="M90.934 44.766h4.937l10.015 23.014h-5.078l-1.6-3.658H87.56l-1.563 3.658h-5.078Zm6.606 15.449-1.847-4.227-2.309-5.966q-1.208 3.55-2.273 5.966l-1.847 4.227Z" fill="#636363"></path>
    <path data-name="Path 1986" d="M116.252 44.766h4.937l10.015 23.014h-5.078l-1.6-3.658h-11.648l-1.562 3.658h-5.079Zm6.606 15.449-1.847-4.227-2.309-5.966q-1.208 3.55-2.273 5.966l-1.847 4.227Z" fill="#636363"></path>
    <path data-name="Path 1987" d="M171.97 30.807h1.009l4.476 9.478h-1.218l-.878-1.843h-5.792l-.878 1.843h-1.2Zm2.955 6.67-1.595-3.335-.863-1.989q-.425 1.125-.849 2l-1.609 3.32Z" fill="#9ab63f"></path>
    <path data-name="Path 1988" d="M179.081 32.087a4.761 4.761 0 0 1 3.5-1.426 4.811 4.811 0 0 1 3.291 1.228l-.717.806a3.639 3.639 0 0 0-2.5-.966 3.6 3.6 0 0 0-2.691 1.111 3.923 3.923 0 0 0-.007 5.4 3.518 3.518 0 0 0 2.639 1.12 3.69 3.69 0 0 0 2.765-1.17l.747.8a5.034 5.034 0 0 1-7.029.007 4.908 4.908 0 0 1 0-6.918" fill="#9ab63f"></path>
    <path data-name="Path 1989" d="M188.248 32.087a5.018 5.018 0 0 1 6.794-.2l-.717.806a3.64 3.64 0 0 0-2.5-.966 3.6 3.6 0 0 0-2.691 1.111 3.924 3.924 0 0 0-.008 5.4 3.521 3.521 0 0 0 2.64 1.12 3.69 3.69 0 0 0 2.765-1.17l.747.8a5.034 5.034 0 0 1-7.029.007 4.908 4.908 0 0 1 0-6.918" fill="#9ab63f"></path>
    <path data-name="Path 1990" d="M204.444 32.087a4.9 4.9 0 0 1 .007 6.918 5.052 5.052 0 0 1-7.036 0 4.9 4.9 0 0 1 .007-6.918 5.034 5.034 0 0 1 7.021 0m-.87 6.157a3.935 3.935 0 0 0 0-5.4 3.691 3.691 0 0 0-5.281 0 3.933 3.933 0 0 0 0 5.4 3.673 3.673 0 0 0 5.281 0" fill="#9ab63f"></path>
    <path data-name="Path 1991" d="M208.644 39.371a3.583 3.583 0 0 1-1.133-2.742v-5.822h1.169v5.818a2.615 2.615 0 0 0 .8 1.968 2.87 2.87 0 0 0 3.906 0 2.617 2.617 0 0 0 .8-1.968v-5.818h1.169v5.818a3.574 3.574 0 0 1-1.14 2.742 4.18 4.18 0 0 1-5.566 0" fill="#9ab63f"></path>
    <path data-name="Path 1992" d="M217.424 30.807h1.14l4.535 5.881q.278.349.585.8t.468.717l.175.279v-7.677h1.17v9.478h-1.17l-4.387-5.689q-.323-.411-.659-.893t-.511-.761l-.176-.278v7.621h-1.17Z" fill="#9ab63f"></path>
    <path data-name="Path 1993" d="M230.408 31.846h-3.511v-1.038h8.191v1.038h-3.511v8.44h-1.17Z" fill="#9ab63f"></path>
    <path data-name="Rectangle 1569" fill="#9ab63f" d="M236.49 30.807h1.17v9.478h-1.17z"></path>
    <path data-name="Path 1994" d="M239.881 30.807h1.14l4.535 5.881q.278.349.585.8t.468.717l.175.279v-7.677h1.17v9.478h-1.17l-4.387-5.689q-.323-.411-.659-.893t-.511-.761l-.176-.278v7.621h-1.17Z" fill="#9ab63f"></path>
    <path data-name="Path 1995" d="M251.168 32.087a4.785 4.785 0 0 1 3.511-1.426 4.895 4.895 0 0 1 3.306 1.244l-.731.82a3.64 3.64 0 0 0-2.574-.995 3.53 3.53 0 0 0-2.641 1.111 3.944 3.944 0 0 0 0 5.411 3.677 3.677 0 0 0 4.308.709 3.653 3.653 0 0 0 1.287-1.1v-1.962h-2.078v-1.01h3.219v3.408a4.655 4.655 0 0 1-1.741 1.566 4.982 4.982 0 0 1-2.355.57 4.781 4.781 0 0 1-3.518-1.426 4.9 4.9 0 0 1 .007-6.918" fill="#9ab63f"></path>
    <path data-name="Path 1996" d="M168.489 44.514h4.4a2.886 2.886 0 0 1 1.909.614 2.071 2.071 0 0 1 .739 1.682 1.92 1.92 0 0 1-.323 1.067 1.573 1.573 0 0 1-.746.659 2.3 2.3 0 0 1 1.428.863 2.628 2.628 0 0 1 .577 1.7 2.571 2.571 0 0 1-.979 2.107 4.029 4.029 0 0 1-2.6.79h-4.4Zm4.461 3.656a1.36 1.36 0 0 0 .994-.358 1.241 1.241 0 0 0 .366-.929 1.262 1.262 0 0 0-.394-.958 1.563 1.563 0 0 0-1.112-.373h-3.145v2.618Zm-.132 4.784a2.839 2.839 0 0 0 1.771-.5 1.605 1.605 0 0 0 .658-1.339 1.789 1.789 0 0 0-.563-1.382 2.279 2.279 0 0 0-1.6-.519h-3.425v3.738Z" fill="#9ab63f"></path>
    <path data-name="Path 1997" d="M178.241 44.514h7.181v1.038h-6.011v2.868h5.617v1.023h-5.617v3.509h6.216v1.039h-7.386Z" fill="#9ab63f"></path>
    <path data-name="Path 1998" d="m190.128 49.502-3.832-4.987h1.375l1.916 2.427q.234.293.52.688t.446.643l.161.249q.644-.936 1.141-1.58l1.887-2.427h1.374l-3.817 4.972v4.506h-1.17Z" fill="#9ab63f"></path>
    <path data-name="Path 1999" d="M203.669 45.793a4.9 4.9 0 0 1 .007 6.919 5.052 5.052 0 0 1-7.036 0 4.9 4.9 0 0 1 .007-6.919 5.036 5.036 0 0 1 7.021 0m-.87 6.158a3.935 3.935 0 0 0 0-5.4 3.691 3.691 0 0 0-5.281 0 3.935 3.935 0 0 0 0 5.4 3.676 3.676 0 0 0 5.281 0" fill="#9ab63f"></path>
    <path data-name="Path 2000" d="M206.883 44.514h1.14l4.535 5.88q.278.35.585.8t.468.717l.175.278v-7.675h1.17v9.478h-1.17l-4.387-5.69q-.323-.409-.659-.892t-.511-.761l-.176-.279v7.621h-1.17Z" fill="#9ab63f"></path>
    <path data-name="Path 2001" d="M217.175 44.514h3.6a4.84 4.84 0 0 1 3.591 1.374 4.824 4.824 0 0 1 0 6.729 4.844 4.844 0 0 1-3.591 1.375h-3.6Zm3.525 8.44a3.733 3.733 0 0 0 2.749-1.046 3.875 3.875 0 0 0 0-5.31 3.733 3.733 0 0 0-2.749-1.046h-2.35v7.4Z" fill="#9ab63f"></path>
    <path data-name="Path 2002" d="M168.489 58.221h1.14l4.535 5.88q.278.35.585.8t.468.717l.175.279v-7.679h1.17v9.478h-1.17l-4.387-5.69q-.323-.409-.659-.892t-.511-.761l-.176-.279v7.621h-1.17Z" fill="#9ab63f"></path>
    <path data-name="Path 2003" d="M179.768 66.785a3.586 3.586 0 0 1-1.133-2.742v-5.821h1.169v5.821a2.614 2.614 0 0 0 .8 1.968 2.869 2.869 0 0 0 3.906 0 2.613 2.613 0 0 0 .8-1.968v-5.821h1.17v5.821a3.574 3.574 0 0 1-1.14 2.742 4.18 4.18 0 0 1-5.566 0" fill="#9ab63f"></path>
    <path data-name="Path 2004" d="M188.545 58.221h1.038l1.126 1.609 2.721 3.773 2.7-3.773 1.128-1.609h1.053v9.478h-1.166v-7.475q-.4.63-.936 1.39l-2.779 3.906-2.809-3.92-.906-1.375V67.7h-1.17Z" fill="#9ab63f"></path>
    <path data-name="Path 2005" d="M200.538 58.222h4.4a2.886 2.886 0 0 1 1.909.614 2.07 2.07 0 0 1 .739 1.682 1.93 1.93 0 0 1-.323 1.068 1.571 1.571 0 0 1-.746.658 2.286 2.286 0 0 1 1.426.863 2.622 2.622 0 0 1 .578 1.7 2.574 2.574 0 0 1-.979 2.108 4.029 4.029 0 0 1-2.6.789h-4.4Zm4.461 3.656a1.36 1.36 0 0 0 .994-.358 1.243 1.243 0 0 0 .366-.929 1.264 1.264 0 0 0-.395-.958 1.562 1.562 0 0 0-1.112-.373h-3.145v2.619Zm-.132 4.783a2.841 2.841 0 0 0 1.771-.5 1.6 1.6 0 0 0 .658-1.338 1.788 1.788 0 0 0-.564-1.383 2.278 2.278 0 0 0-1.6-.519h-3.425v3.744Z" fill="#9ab63f"></path>
    <path data-name="Path 2006" d="M210.29 58.221h7.181v1.038h-6.012v2.867h5.617v1.024h-5.617v3.51h6.217v1.039h-7.386Z" fill="#9ab63f"></path>
    <path data-name="Path 2007" d="M219.309 58.221h3.876a4.192 4.192 0 0 1 3 1.009 3.35 3.35 0 0 1 1.068 2.545 3.4 3.4 0 0 1-.57 1.916 3.264 3.264 0 0 1-1.595 1.258l2.239 2.75h-1.478l-1.916-2.414q-.366.044-1.726.044h-1.726v2.37h-1.17Zm3.993 6.07a2.725 2.725 0 0 0 1.968-.725 2.507 2.507 0 0 0 0-3.583 2.7 2.7 0 0 0-1.952-.725h-2.838v5.032Z" fill="#9ab63f"></path>
    <path data-name="Path 2008" d="M228.978 65.505a4.226 4.226 0 0 0 3.159 1.272 3.385 3.385 0 0 0 1.734-.446 1.4 1.4 0 0 0 .767-1.279 1.114 1.114 0 0 0-.146-.563 1.561 1.561 0 0 0-.336-.417 2.248 2.248 0 0 0-.548-.315 6.39 6.39 0 0 0-.622-.233q-.264-.081-.7-.183-.644-.161-1.017-.271a9.025 9.025 0 0 1-.9-.329 2.912 2.912 0 0 1-.812-.474 2.309 2.309 0 0 1-.5-.673 2.06 2.06 0 0 1-.212-.944 2.18 2.18 0 0 1 .987-1.879 3.922 3.922 0 0 1 2.319-.695 5.221 5.221 0 0 1 3.218 1.067l-.542.907a4.3 4.3 0 0 0-2.676-.907 2.808 2.808 0 0 0-1.412.38 1.214 1.214 0 0 0-.666 1.112 1.01 1.01 0 0 0 .139.526 1.483 1.483 0 0 0 .322.388 1.951 1.951 0 0 0 .534.293 5.908 5.908 0 0 0 .621.212c.181.049.431.112.754.19.4.1.74.191 1.023.278a6.763 6.763 0 0 1 .914.366 3.011 3.011 0 0 1 .783.512 2.4 2.4 0 0 1 .5.7 2.155 2.155 0 0 1 .2.95 2.325 2.325 0 0 1-1.112 2.069 4.687 4.687 0 0 1-2.618.725 4.932 4.932 0 0 1-3.686-1.448Z" fill="#9ab63f"></path>
  </g>
</svg>
